Sprint_04500001_forces_filt100Hz.mot
version=1
nRows=57
nColumns=19
inDegrees=yes
endheader
time	R_ground_force_vx	R_ground_force_vy	R_ground_force_vz	R_ground_force_px	R_ground_force_py	R_ground_force_pz	R_ground_torque_x	R_ground_torque_y	R_ground_torque_z	L_ground_force_vx	L_ground_force_vy	L_ground_force_vz	L_ground_force_px	L_ground_force_py	L_ground_force_pz	L_ground_torque_x	L_ground_torque_y	L_ground_torque_z	
0.981000	  0.000000	  0.000000	  0.000000	  0.878836	  0.000000	 -0.230606	  0.000000	  0.000000	  0.000000	414.540521	456.624700	-185.153180	  0.181830	  0.000000	 -0.419039	  0.000000	200.750654	  0.000000
0.981500	  0.000000	  0.000000	  0.000000	  0.881660	  0.000000	 -0.230696	  0.000000	  0.000000	  0.000000	402.592167	447.859932	-167.294067	  0.189921	  0.000000	 -0.417786	  0.000000	180.222407	  0.000000
0.982000	  0.000000	  0.000000	  0.000000	  0.884484	  0.000000	 -0.230785	  0.000000	  0.000000	  0.000000	389.017275	440.957967	-146.430841	  0.203334	  0.000000	 -0.414162	  0.000000	154.610895	  0.000000
0.982500	  0.000000	  0.000000	  0.000000	  0.887308	  0.000000	 -0.230875	  0.000000	  0.000000	  0.000000	373.923397	435.743969	-122.721750	  0.221739	  0.000000	 -0.408055	  0.000000	124.680192	  0.000000
0.983000	  0.000000	  0.000000	  0.000000	  0.890133	  0.000000	 -0.230964	  0.000000	  0.000000	  0.000000	357.528512	431.942218	-96.470405	  0.244436	  0.000000	 -0.399560	  0.000000	 91.588125	  0.000000
0.983500	  0.000000	  0.000000	  0.000000	  0.892957	  0.000000	 -0.231054	  0.000000	  0.000000	  0.000000	340.112012	429.210866	-68.121050	  0.270468	  0.000000	 -0.388972	  0.000000	 56.747947	  0.000000
0.984000	  0.000000	  0.000000	  0.000000	  0.895781	  0.000000	 -0.231143	  0.000000	  0.000000	  0.000000	321.963075	427.174521	-38.258973	  0.298744	  0.000000	 -0.376773	  0.000000	 21.668398	  0.000000
0.984500	  0.000000	  0.000000	  0.000000	  0.898605	  0.000000	 -0.231232	  0.000000	  0.000000	  0.000000	303.345457	425.455736	 -7.603841	  0.328140	  0.000000	 -0.363588	  0.000000	-12.212585	  0.000000
0.985000	  0.000000	  0.000000	  0.000000	  0.901429	  0.000000	 -0.231322	  0.000000	  0.000000	  0.000000	284.485758	423.698348	 23.014917	  0.357587	  0.000000	 -0.350133	  0.000000	-43.675738	  0.000000
0.985500	  0.000000	  0.000000	  0.000000	  0.904260	  0.000000	 -0.231400	  0.000000	  0.000000	  0.000000	265.583287	421.569781	 52.706432	  0.386148	  0.000000	 -0.337148	  0.000000	-71.819790	  0.000000
0.986000	  0.000000	  0.000000	  0.000000	  0.907091	  0.000000	 -0.231479	  0.000000	  0.000000	  0.000000	246.833346	418.737503	 80.586005	  0.413087	  0.000000	 -0.325339	  0.000000	-96.093854	  0.000000
0.986500	  0.000000	  0.000000	  0.000000	  0.909922	  0.000000	 -0.231557	  0.000000	  0.000000	  0.000000	228.450056	414.824464	105.851352	  0.437929	  0.000000	 -0.315315	  0.000000	-116.263628	  0.000000
0.987000	  0.000000	  0.000000	  0.000000	  0.912753	  0.000000	 -0.231635	  0.000000	  0.000000	  0.000000	210.678377	409.360424	127.855697	  0.460486	  0.000000	 -0.307540	  0.000000	-132.333826	  0.000000
0.987500	  0.000000	  0.000000	  0.000000	  0.915584	  0.000000	 -0.231713	  0.000000	  0.000000	  0.000000	193.789684	401.753925	146.163392	  0.480827	  0.000000	 -0.302296	  0.000000	-144.462736	  0.000000
0.988000	  0.000000	  0.000000	  0.000000	  0.918415	  0.000000	 -0.231792	  0.000000	  0.000000	  0.000000	178.058561	391.300731	160.580053	  0.499170	  0.000000	 -0.299668	  0.000000	-152.900028	  0.000000
0.988500	  0.000000	  0.000000	  0.000000	  0.921246	  0.000000	 -0.231870	  0.000000	  0.000000	  0.000000	163.721784	377.236086	171.155293	  0.515711	  0.000000	 -0.299553	  0.000000	-157.964239	  0.000000
0.989000	  0.000000	  0.000000	  0.000000	  0.924077	  0.000000	 -0.231948	  0.000000	  0.000000	  0.000000	150.930731	358.827809	178.157695	  0.530449	  0.000000	 -0.301685	  0.000000	-160.050964	  0.000000
0.989500	  0.000000	  0.000000	  0.000000	  0.926908	  0.000000	 -0.232027	  0.000000	  0.000000	  0.000000	139.717116	335.497994	182.023287	  0.543080	  0.000000	 -0.305673	  0.000000	-159.641819	  0.000000
0.990000	  0.000000	  0.000000	  0.000000	  0.929739	  0.000000	 -0.232105	  0.000000	  0.000000	  0.000000	129.985895	306.963836	183.284369	  0.552994	  0.000000	 -0.311048	  0.000000	-157.291064	  0.000000
0.990500	  0.000000	  0.000000	  0.000000	  0.932553	  0.000000	 -0.232145	  0.000000	  0.000000	  0.000000	121.540436	273.392238	182.491430	  0.559391	  0.000000	 -0.317299	  0.000000	-153.582105	  0.000000
0.991000	  0.000000	  0.000000	  0.000000	  0.935367	  0.000000	 -0.232186	  0.000000	  0.000000	  0.000000	114.128937	235.566140	180.144141	  0.544342	 -0.000000	 -0.321215	  0.000000	-149.065781	  0.000000
0.991500	  0.000000	  0.000000	  0.000000	  0.938181	  0.000000	 -0.232226	  0.000000	  0.000000	  0.000000	107.490368	195.062256	176.648788	  0.529293	 -0.000000	 -0.325131	  0.000000	-144.204787	  0.000000
0.992000	  0.000000	  0.000000	  0.000000	  0.940995	  0.000000	 -0.232267	  0.000000	  0.000000	  0.000000	101.385599	154.260736	172.306940	  0.514244	 -0.000000	 -0.329047	  0.000000	-139.341867	  0.000000
0.992500	  0.000000	  0.000000	  0.000000	  0.943808	  0.000000	 -0.232307	  0.000000	  0.000000	  0.000000	 95.606766	115.828641	167.328270	  0.499195	 -0.000000	 -0.332963	  0.000000	-134.702582	  0.000000
0.993000	  0.000000	  0.000000	  0.000000	  0.946622	  0.000000	 -0.232347	  0.000000	  0.000000	  0.000000	 89.970414	 81.875242	161.852372	  0.484146	 -0.000000	 -0.336879	  0.000000	-130.427313	  0.000000
0.993500	  0.000000	  0.000000	  0.000000	  0.949436	  0.000000	 -0.232388	  0.000000	  0.000000	  0.000000	 84.309587	 53.521856	155.960154	  0.469097	  0.000000	 -0.340795	  0.000000	-126.610873	  0.000000
0.994000	  0.000000	  0.000000	  0.000000	  0.952250	  0.000000	 -0.232428	  0.000000	  0.000000	  0.000000	 78.475676	 31.037772	149.670373	  0.454048	  0.000000	 -0.344710	  0.000000	-123.321544	  0.000000
0.994500	  0.000000	  0.000000	  0.000000	  0.955064	  0.000000	 -0.232469	  0.000000	  0.000000	  0.000000	 72.354531	 14.124198	142.929746	  0.438999	  0.000000	 -0.348626	  0.000000	-120.569603	  0.000000
0.995000	  0.000000	  0.000000	  0.000000	  0.957878	  0.000000	 -0.232509	  0.000000	  0.000000	  0.000000	  0.000000	  0.000000	  0.000000	  0.423950	  0.000000	 -0.352542	  0.000000	  0.000000	  0.000000
0.995500	  0.000000	  0.000000	  0.000000	  0.960702	  0.000000	 -0.232592	  0.000000	  0.000000	  0.000000	  0.000000	  0.000000	  0.000000	  0.408901	  0.000000	 -0.356458	  0.000000	  0.000000	  0.000000
0.996000	  0.000000	  0.000000	  0.000000	  0.963525	  0.000000	 -0.232675	  0.000000	  0.000000	  0.000000	  0.000000	  0.000000	  0.000000	  0.393852	  0.000000	 -0.360374	  0.000000	  0.000000	  0.000000
0.996500	  0.000000	  0.000000	  0.000000	  0.966349	  0.000000	 -0.232758	  0.000000	  0.000000	  0.000000	  0.000000	  0.000000	  0.000000	  0.392044	  0.000000	 -0.360495	  0.000000	  0.000000	  0.000000
0.997000	  0.000000	  0.000000	  0.000000	  0.969172	  0.000000	 -0.232841	  0.000000	  0.000000	  0.000000	  0.000000	  0.000000	  0.000000	  0.390236	  0.000000	 -0.360617	  0.000000	  0.000000	  0.000000
0.997500	  0.000000	  0.000000	  0.000000	  0.971996	  0.000000	 -0.232924	  0.000000	  0.000000	  0.000000	  0.000000	  0.000000	  0.000000	  0.388428	  0.000000	 -0.360738	  0.000000	  0.000000	  0.000000
0.998000	  0.000000	  0.000000	  0.000000	  0.974820	  0.000000	 -0.233007	  0.000000	  0.000000	  0.000000	  0.000000	  0.000000	  0.000000	  0.386621	  0.000000	 -0.360859	  0.000000	  0.000000	  0.000000
0.998500	  0.000000	  0.000000	  0.000000	  0.977643	  0.000000	 -0.233090	  0.000000	  0.000000	  0.000000	  0.000000	  0.000000	  0.000000	  0.384813	  0.000000	 -0.360981	  0.000000	  0.000000	  0.000000
0.999000	  0.000000	  0.000000	  0.000000	  0.980467	  0.000000	 -0.233173	  0.000000	  0.000000	  0.000000	  0.000000	  0.000000	  0.000000	  0.383005	  0.000000	 -0.361102	  0.000000	  0.000000	  0.000000
0.999500	  0.000000	  0.000000	  0.000000	  0.983290	  0.000000	 -0.233256	  0.000000	  0.000000	  0.000000	  0.000000	  0.000000	  0.000000	  0.381197	  0.000000	 -0.361224	  0.000000	  0.000000	  0.000000
1.000000	  0.000000	  0.000000	  0.000000	  0.986114	  0.000000	 -0.233339	  0.000000	  0.000000	  0.000000	  0.000000	  0.000000	  0.000000	  0.379389	  0.000000	 -0.361345	  0.000000	  0.000000	  0.000000
1.000500	  0.000000	  0.000000	  0.000000	  0.988875	  0.000000	 -0.233428	  0.000000	  0.000000	  0.000000	  0.000000	  0.000000	  0.000000	  0.377699	  0.000000	 -0.361447	  0.000000	  0.000000	  0.000000
1.001000	  0.000000	  0.000000	  0.000000	  0.991635	  0.000000	 -0.233516	  0.000000	  0.000000	  0.000000	  0.000000	  0.000000	  0.000000	  0.376009	  0.000000	 -0.361549	  0.000000	  0.000000	  0.000000
1.001500	  0.000000	  0.000000	  0.000000	  0.994396	  0.000000	 -0.233604	  0.000000	  0.000000	  0.000000	  0.000000	  0.000000	  0.000000	  0.374319	  0.000000	 -0.361651	  0.000000	  0.000000	  0.000000
1.002000	  0.000000	  0.000000	  0.000000	  0.997157	  0.000000	 -0.233693	  0.000000	  0.000000	  0.000000	  0.000000	  0.000000	  0.000000	  0.372629	  0.000000	 -0.361752	  0.000000	  0.000000	  0.000000
1.002500	  0.000000	  0.000000	  0.000000	  0.999917	  0.000000	 -0.233781	  0.000000	  0.000000	  0.000000	  0.000000	  0.000000	  0.000000	  0.370939	  0.000000	 -0.361854	  0.000000	  0.000000	  0.000000
1.003000	  0.000000	  0.000000	  0.000000	  1.002678	  0.000000	 -0.233869	  0.000000	  0.000000	  0.000000	  0.000000	  0.000000	  0.000000	  0.369249	  0.000000	 -0.361956	  0.000000	  0.000000	  0.000000
1.003500	  0.000000	  0.000000	  0.000000	  1.005439	  0.000000	 -0.233958	  0.000000	  0.000000	  0.000000	  0.000000	  0.000000	  0.000000	  0.367559	  0.000000	 -0.362058	  0.000000	  0.000000	  0.000000
1.004000	  0.000000	  0.000000	  0.000000	  1.008199	  0.000000	 -0.234046	  0.000000	  0.000000	  0.000000	  0.000000	  0.000000	  0.000000	  0.365869	  0.000000	 -0.362159	  0.000000	  0.000000	  0.000000
1.004500	  0.000000	  0.000000	  0.000000	  1.010960	  0.000000	 -0.234134	  0.000000	  0.000000	  0.000000	  0.000000	  0.000000	  0.000000	  0.364179	  0.000000	 -0.362261	  0.000000	  0.000000	  0.000000
1.005000	  0.000000	  0.000000	  0.000000	  1.013721	  0.000000	 -0.234223	  0.000000	  0.000000	  0.000000	  0.000000	  0.000000	  0.000000	  0.362488	  0.000000	 -0.362363	  0.000000	  0.000000	  0.000000
1.005500	  0.000000	  0.000000	  0.000000	  1.016448	  0.000000	 -0.234255	  0.000000	  0.000000	  0.000000	  0.000000	  0.000000	  0.000000	  0.360880	  0.000000	 -0.362538	  0.000000	  0.000000	  0.000000
1.006000	  0.000000	  0.000000	  0.000000	  1.019175	  0.000000	 -0.234287	  0.000000	  0.000000	  0.000000	  0.000000	  0.000000	  0.000000	  0.359271	  0.000000	 -0.362714	  0.000000	  0.000000	  0.000000
1.006500	  0.000000	  0.000000	  0.000000	  1.021903	  0.000000	 -0.234319	  0.000000	  0.000000	  0.000000	  0.000000	  0.000000	  0.000000	  0.357662	  0.000000	 -0.362889	  0.000000	  0.000000	  0.000000
1.007000	  0.000000	  0.000000	  0.000000	  1.024630	  0.000000	 -0.234351	  0.000000	  0.000000	  0.000000	  0.000000	  0.000000	  0.000000	  0.356053	  0.000000	 -0.363065	  0.000000	  0.000000	  0.000000
1.007500	  0.000000	  0.000000	  0.000000	  1.027357	  0.000000	 -0.234383	  0.000000	  0.000000	  0.000000	  0.000000	  0.000000	  0.000000	  0.354444	  0.000000	 -0.363240	  0.000000	  0.000000	  0.000000
1.008000	  0.000000	  0.000000	  0.000000	  1.030084	  0.000000	 -0.234415	  0.000000	  0.000000	  0.000000	  0.000000	  0.000000	  0.000000	  0.352835	  0.000000	 -0.363415	  0.000000	  0.000000	  0.000000
1.008500	  0.000000	  0.000000	  0.000000	  1.032811	  0.000000	 -0.234447	  0.000000	  0.000000	  0.000000	  0.000000	  0.000000	  0.000000	  0.351226	  0.000000	 -0.363591	  0.000000	  0.000000	  0.000000
1.009000	  0.000000	  0.000000	  0.000000	  1.035539	  0.000000	 -0.234479	  0.000000	  0.000000	  0.000000	  0.000000	  0.000000	  0.000000	  0.349617	  0.000000	 -0.363766	  0.000000	  0.000000	  0.000000
